<?xml version="1.0" encoding="UTF-8"?><svg xmlns="http://www.w3.org/2000/svg" viewBox="0 0 384.15 63.18"><defs><style>.d{fill:#1e1e1e;}.e{fill:#ff4712;}</style></defs><g id="a"/><g id="b"><g id="c"><g><path class="d" d="M45.84,0H12.64V12.64H45.84V31.59H12.64V12.64H0v31.59H0v18.96H12.64v-18.96H45.84c6.98,0,12.64-5.66,12.64-12.64V12.64L45.84,0Z"/><g><path class="d" d="M83.75,12.64h-12.64V63.18h12.64v-18.96h16.64c6.98,0,12.64-5.66,12.64-12.64h-29.27V12.64Z"/><path class="d" d="M114.59,0h-30.83V12.64h29.27V63.18h12.64V11.08c0-6.12-4.96-11.08-11.08-11.08Z"/></g><g><path class="d" d="M167.61,31.59h-16.67V12.64h-12.64V63.18h12.64v-18.96h29.31c0-6.98-5.66-12.64-12.64-12.64Z"/><path class="d" d="M192.88,31.59V12.64c0-6.98-5.66-12.64-12.64-12.64h-29.31V12.64h29.31V63.18h12.64v-7.36c0-6.4-5.19-11.59-11.59-11.59h-1.04c6.98,0,12.64-5.66,12.64-12.64Z"/></g><g><path class="d" d="M228.94,25.27V63.18h12.64V12.64c-6.98,0-12.64,5.66-12.64,12.64Z"/><rect class="d" x="241.58" width="23.56" height="12.64"/><rect class="d" x="205.51" width="23.43" height="12.64"/></g><g><path class="e" d="M315.13,12.64v12.64h-34.16v12.64h34.16v12.64h-37.35v12.64h37.35c6.98,0,12.64-5.66,12.64-12.64V12.64h-12.64Z"/><rect class="e" x="277.77" width="37.35" height="12.64"/></g><g><path class="d" d="M352.04,63.18h19.48v-12.64h-32.11c0,6.98,5.66,12.64,12.64,12.64Z"/><path class="d" d="M371.51,25.27h-19.48V12.64h32.11c0-6.98-5.66-12.64-12.64-12.64h-19.48l-7.13,7.13-5.5,5.5v12.64c0,6.98,5.66,12.64,12.64,12.64h19.48v12.64h12.64v-12.64c0-6.98-5.66-12.64-12.64-12.64Z"/></g></g></g></g></svg>